<svg width="80" height="80" viewBox="0 0 80 80" fill="none" xmlns="http://www.w3.org/2000/svg">
<path d="M10 45.9917V70.0002" stroke="#0071bc" stroke-width="4" stroke-linecap="round" stroke-linejoin="round"/>
<path d="M10 65.9984H50.0142C50.0142 63.8759 49.1711 61.8403 47.6702 60.3395C46.1694 58.8387 44.1339 57.9955 42.0114 57.9955H31.9972C31.9972 55.873 31.154 53.8375 29.6532 52.3367C28.1523 50.8358 26.1168 49.9927 23.9943 49.9927H10" stroke="#0071bc" stroke-width="4" stroke-linecap="round" stroke-linejoin="round"/>
<path d="M24.0049 57.9956H32.0077" stroke="#0071bc" stroke-width="4" stroke-linecap="round" stroke-linejoin="round"/>
<path d="M36.604 44.695C38.6398 41.3304 41.721 38.7246 45.3769 37.2757C49.0328 35.8268 53.0625 35.6144 56.8505 36.6709C60.6385 37.7274 63.9766 39.9949 66.3548 43.1268C68.733 46.2588 70.0207 50.0831 70.0212 54.0157H52.0041" stroke="#0071bc" stroke-width="4" stroke-linecap="round" stroke-linejoin="round"/>
<path d="M41.0112 21.0039C41.0112 23.9223 42.1706 26.7212 44.2342 28.7849C46.2978 30.8485 49.0967 32.0078 52.0151 32.0078C54.9336 32.0078 57.7325 30.8485 59.7961 28.7849C61.8597 26.7212 63.0191 23.9223 63.0191 21.0039C63.0191 18.0855 61.8597 15.2866 59.7961 13.223C57.7325 11.1593 54.9336 10 52.0151 10C49.0967 10 46.2978 11.1593 44.2342 13.223C42.1706 15.2866 41.0112 18.0855 41.0112 21.0039V21.0039Z" stroke="#0071bc" stroke-width="4" stroke-linecap="round" stroke-linejoin="round"/>
<path d="M19 24C19 23.0111 19.2932 22.0444 19.8427 21.2222C20.3921 20.3999 21.173 19.759 22.0866 19.3806C23.0002 19.0022 24.0055 18.9031 24.9755 19.0961C25.9454 19.289 26.8363 19.7652 27.5355 20.4645C28.2348 21.1637 28.711 22.0546 28.9039 23.0246C29.0969 23.9945 28.9978 24.9998 28.6194 25.9134C28.241 26.8271 27.6001 27.6079 26.7779 28.1574C25.9556 28.7068 24.9889 29 24 29" stroke="#0071bc" stroke-width="4" stroke-linecap="round" stroke-linejoin="round"/>
<path d="M24 37C24.1978 37 24.3911 37.0586 24.5556 37.1685C24.72 37.2784 24.8482 37.4346 24.9239 37.6173C24.9996 37.8 25.0194 38.0011 24.9808 38.1951C24.9422 38.3891 24.847 38.5673 24.7071 38.7071C24.5673 38.847 24.3891 38.9422 24.1951 38.9808C24.0011 39.0194 23.8 38.9996 23.6173 38.9239C23.4346 38.8482 23.2784 38.72 23.1685 38.5556C23.0586 38.3911 23 38.1978 23 38C23 37.7348 23.1054 37.4804 23.2929 37.2929C23.4804 37.1054 23.7348 37 24 37" stroke="#0071bc" stroke-width="4" stroke-linecap="round" stroke-linejoin="round"/>
</svg>
