<svg width="80" height="80" viewBox="0 0 80 80" fill="none" xmlns="http://www.w3.org/2000/svg">
<path d="M54.0005 66V46C54.0005 44.9391 53.5791 43.9217 52.8289 43.1716C52.0788 42.4214 51.0614 42 50.0005 42H30.0005C28.9396 42 27.9222 42.4214 27.1721 43.1716C26.4219 43.9217 26.0005 44.9391 26.0005 46V62C26.0005 63.0609 26.4219 64.0783 27.1721 64.8285C27.9222 65.5786 28.9396 66 30.0005 66H34.0005" stroke="#0071bc" stroke-width="4" stroke-linecap="round" stroke-linejoin="round"/>
<path d="M54 46H62C64.1217 46 66.1566 46.8429 67.6569 48.3431C69.1572 49.8434 70 51.8783 70 54V66H62" stroke="#0071bc" stroke-width="4" stroke-linecap="round" stroke-linejoin="round"/>
<path d="M34 66C34 67.0609 34.4214 68.0783 35.1716 68.8284C35.9217 69.5786 36.9391 70 38 70C39.0609 70 40.0783 69.5786 40.8284 68.8284C41.5786 68.0783 42 67.0609 42 66C42 64.9391 41.5786 63.9217 40.8284 63.1716C40.0783 62.4214 39.0609 62 38 62C36.9391 62 35.9217 62.4214 35.1716 63.1716C34.4214 63.9217 34 64.9391 34 66V66Z" stroke="#0071bc" stroke-width="4" stroke-linecap="round" stroke-linejoin="round"/>
<path d="M54 66C54 67.0609 54.4214 68.0783 55.1716 68.8284C55.9217 69.5786 56.9391 70 58 70C59.0609 70 60.0783 69.5786 60.8284 68.8284C61.5786 68.0783 62 67.0609 62 66C62 64.9391 61.5786 63.9217 60.8284 63.1716C60.0783 62.4214 59.0609 62 58 62C56.9391 62 55.9217 62.4214 55.1716 63.1716C54.4214 63.9217 54 64.9391 54 66Z" stroke="#0071bc" stroke-width="4" stroke-linecap="round" stroke-linejoin="round"/>
<path d="M42 66H54" stroke="#0071bc" stroke-width="4" stroke-linecap="round" stroke-linejoin="round"/>
<path d="M18 58H14C12.9391 58 11.9217 57.5786 11.1716 56.8285C10.4214 56.0783 10 55.0609 10 54V26C10 24.9391 10.4214 23.9217 11.1716 23.1716C11.9217 22.4214 12.9391 22 14 22H54.0001C55.0609 22 56.0783 22.4214 56.8285 23.1716C57.5786 23.9217 58.0001 24.9391 58.0001 26V34" stroke="#0071bc" stroke-width="4" stroke-linecap="round" stroke-linejoin="round"/>
<path d="M56.7093 23.0587L49.1866 11.7813C48.8221 11.2345 48.3285 10.786 47.7494 10.4753C47.1704 10.1646 46.5237 10.0014 45.8666 10H22.1332C21.4747 10 20.8264 10.1627 20.2459 10.4734C19.6653 10.7842 19.1704 11.2334 18.8052 11.7813L11.2905 23.0587" stroke="#0071bc" stroke-width="4" stroke-linecap="round" stroke-linejoin="round"/>
<path d="M34 10V22" stroke="#0071bc" stroke-width="4" stroke-linecap="round" stroke-linejoin="round"/>
</svg>
